<mxfile host="Electron" modified="2023-05-06T08:49:49.595Z" agent="Mozilla/5.0 (Macintosh; Intel Mac OS X 10_15_7) AppleWebKit/537.36 (KHTML, like Gecko) draw.io/21.2.1 Chrome/112.0.5615.87 Electron/24.1.2 Safari/537.36" etag="mkTF5Vhp88y_L9p-Cxa3" version="21.2.1" type="device" pages="2">
  <diagram name="Use case" id="yX-cnH5kckmRNkk6PQ5S">
    <mxGraphModel dx="2133" dy="894" grid="1" gridSize="10" guides="1" tooltips="1" connect="1" arrows="1" fold="1" page="1" pageScale="1" pageWidth="827" pageHeight="1169" math="0" shadow="0">
      <root>
        <mxCell id="0" />
        <mxCell id="1" parent="0" />
        <mxCell id="H0ZGV0BMWGFcxjd4aFy0-1" value="WhatsappWallet" style="swimlane;whiteSpace=wrap;html=1;" parent="1" vertex="1">
          <mxGeometry x="-20" y="290" width="740" height="500" as="geometry" />
        </mxCell>
        <mxCell id="H0ZGV0BMWGFcxjd4aFy0-2" value="Register" style="ellipse;whiteSpace=wrap;html=1;" parent="H0ZGV0BMWGFcxjd4aFy0-1" vertex="1">
          <mxGeometry x="80" y="100" width="100" height="50" as="geometry" />
        </mxCell>
        <mxCell id="H0ZGV0BMWGFcxjd4aFy0-3" value="Topup" style="ellipse;whiteSpace=wrap;html=1;" parent="H0ZGV0BMWGFcxjd4aFy0-1" vertex="1">
          <mxGeometry x="80" y="180" width="100" height="50" as="geometry" />
        </mxCell>
        <mxCell id="H0ZGV0BMWGFcxjd4aFy0-4" value="Check&lt;br&gt;balance" style="ellipse;whiteSpace=wrap;html=1;" parent="H0ZGV0BMWGFcxjd4aFy0-1" vertex="1">
          <mxGeometry x="80" y="270" width="100" height="50" as="geometry" />
        </mxCell>
        <mxCell id="H0ZGV0BMWGFcxjd4aFy0-5" value="Transfer" style="ellipse;whiteSpace=wrap;html=1;" parent="H0ZGV0BMWGFcxjd4aFy0-1" vertex="1">
          <mxGeometry x="80" y="370" width="100" height="50" as="geometry" />
        </mxCell>
        <mxCell id="H0ZGV0BMWGFcxjd4aFy0-6" value="User" style="shape=umlActor;html=1;verticalLabelPosition=bottom;verticalAlign=top;align=center;" parent="1" vertex="1">
          <mxGeometry x="-110" y="460" width="30" height="60" as="geometry" />
        </mxCell>
        <mxCell id="H0ZGV0BMWGFcxjd4aFy0-7" value="" style="edgeStyle=none;html=1;endArrow=none;verticalAlign=bottom;rounded=0;exitX=1;exitY=0.3333333333333333;exitDx=0;exitDy=0;exitPerimeter=0;entryX=0;entryY=0.5;entryDx=0;entryDy=0;" parent="1" source="H0ZGV0BMWGFcxjd4aFy0-6" target="H0ZGV0BMWGFcxjd4aFy0-2" edge="1">
          <mxGeometry width="160" relative="1" as="geometry">
            <mxPoint x="-90" y="390" as="sourcePoint" />
            <mxPoint x="70" y="390" as="targetPoint" />
          </mxGeometry>
        </mxCell>
        <mxCell id="H0ZGV0BMWGFcxjd4aFy0-8" value="" style="edgeStyle=none;html=1;endArrow=none;verticalAlign=bottom;rounded=0;entryX=0;entryY=0.5;entryDx=0;entryDy=0;" parent="1" target="H0ZGV0BMWGFcxjd4aFy0-3" edge="1">
          <mxGeometry width="160" relative="1" as="geometry">
            <mxPoint x="-80" y="480" as="sourcePoint" />
            <mxPoint x="40" y="600" as="targetPoint" />
          </mxGeometry>
        </mxCell>
        <mxCell id="H0ZGV0BMWGFcxjd4aFy0-9" value="" style="edgeStyle=none;html=1;endArrow=none;verticalAlign=bottom;rounded=0;exitX=1;exitY=0.3333333333333333;exitDx=0;exitDy=0;exitPerimeter=0;entryX=0;entryY=0.5;entryDx=0;entryDy=0;" parent="1" source="H0ZGV0BMWGFcxjd4aFy0-6" target="H0ZGV0BMWGFcxjd4aFy0-4" edge="1">
          <mxGeometry width="160" relative="1" as="geometry">
            <mxPoint x="-110" y="610" as="sourcePoint" />
            <mxPoint x="50" y="610" as="targetPoint" />
          </mxGeometry>
        </mxCell>
        <mxCell id="H0ZGV0BMWGFcxjd4aFy0-10" value="" style="edgeStyle=none;html=1;endArrow=none;verticalAlign=bottom;rounded=0;exitX=1;exitY=0.3333333333333333;exitDx=0;exitDy=0;exitPerimeter=0;entryX=0;entryY=0.5;entryDx=0;entryDy=0;" parent="1" source="H0ZGV0BMWGFcxjd4aFy0-6" target="H0ZGV0BMWGFcxjd4aFy0-5" edge="1">
          <mxGeometry width="160" relative="1" as="geometry">
            <mxPoint x="-180" y="630" as="sourcePoint" />
            <mxPoint x="-20" y="630" as="targetPoint" />
          </mxGeometry>
        </mxCell>
      </root>
    </mxGraphModel>
  </diagram>
  <diagram id="a9JKtdJMyREAe9EIBw6m" name="Entities">
    <mxGraphModel dx="1306" dy="894" grid="1" gridSize="10" guides="1" tooltips="1" connect="1" arrows="1" fold="1" page="1" pageScale="1" pageWidth="827" pageHeight="1169" math="0" shadow="0">
      <root>
        <mxCell id="0" />
        <mxCell id="1" parent="0" />
        <mxCell id="YluH2dZY1gDKcJEpAwbl-1" value="Account" style="swimlane;childLayout=stackLayout;horizontal=1;startSize=30;horizontalStack=0;rounded=1;fontSize=14;fontStyle=0;strokeWidth=2;resizeParent=0;resizeLast=1;shadow=0;dashed=0;align=center;arcSize=4;whiteSpace=wrap;html=1;" parent="1" vertex="1">
          <mxGeometry x="170" y="170" width="160" height="120" as="geometry" />
        </mxCell>
        <mxCell id="YluH2dZY1gDKcJEpAwbl-2" value="- id INT (FK)&lt;br&gt;- name STRING&lt;br&gt;- balance FLOAT&lt;br&gt;- phone STRING&lt;br&gt;- account_number STRING" style="align=left;strokeColor=none;fillColor=none;spacingLeft=4;fontSize=12;verticalAlign=top;resizable=0;rotatable=0;part=1;html=1;" parent="YluH2dZY1gDKcJEpAwbl-1" vertex="1">
          <mxGeometry y="30" width="160" height="90" as="geometry" />
        </mxCell>
        <mxCell id="Jad4Pd3kL8RgpmprJ0BL-1" value="Payment" style="swimlane;childLayout=stackLayout;horizontal=1;startSize=30;horizontalStack=0;rounded=1;fontSize=14;fontStyle=0;strokeWidth=2;resizeParent=0;resizeLast=1;shadow=0;dashed=0;align=center;arcSize=4;whiteSpace=wrap;html=1;" parent="1" vertex="1">
          <mxGeometry x="400" y="170" width="160" height="120" as="geometry" />
        </mxCell>
        <mxCell id="Jad4Pd3kL8RgpmprJ0BL-2" value="- id INT (FK)&lt;br&gt;- amount FLOAT&lt;br&gt;- account INT (FK)" style="align=left;strokeColor=none;fillColor=none;spacingLeft=4;fontSize=12;verticalAlign=top;resizable=0;rotatable=0;part=1;html=1;" parent="Jad4Pd3kL8RgpmprJ0BL-1" vertex="1">
          <mxGeometry y="30" width="160" height="90" as="geometry" />
        </mxCell>
      </root>
    </mxGraphModel>
  </diagram>
</mxfile>
